<?xml version="1.0" encoding="UTF-8"?><svg id="Layer_1" xmlns="http://www.w3.org/2000/svg" viewBox="0 0 459.3 165.7"><defs><style>.cls-1{fill:#fff;}</style></defs><path class="cls-1" d="m210.6,33.4h33.4c5.7,0,10.9,1.3,15.7,3.8s8.6,6,11.5,10.5c2.8,4.5,4.2,9.6,4.2,15.2s-1.4,10.7-4.2,15.2-6.7,8-11.5,10.5-10,3.8-15.7,3.8h-18.3v37.5h-15.1V33.4Zm33.7,44.7c3.3,0,6.2-.7,8.6-2.2,2.4-1.5,4.3-3.4,5.5-5.7,1.3-2.3,1.9-4.8,1.9-7.3s-.6-4.9-1.9-7.3c-1.3-2.3-3.1-4.2-5.5-5.7-2.4-1.4-5.3-2.2-8.6-2.2h-18.6v30.3h18.6v.1Z"/><path class="cls-1" d="m283,49.4c-1.9-1.9-2.9-4.3-2.9-7.1s1-5.1,2.9-7.1c1.9-1.9,4.3-2.9,7.1-2.9s5.1,1,7.1,2.9c1.9,1.9,2.9,4.3,2.9,7.1s-1,5.1-2.9,7.1c-1.9,1.9-4.3,2.9-7.1,2.9s-5.2-1-7.1-2.9Zm-.3,11.8h14.8v68.7h-14.8V61.2Z"/><path class="cls-1" d="m327.1,95l-23.7-33.8h17.3l15.2,22.4h.4l14.6-22.4h17.8l-24,33.8,24.3,34.9h-17.5l-15.4-23.2h-.4l-15,23.2h-17.5l23.9-34.9Z"/><path class="cls-1" d="m384.6,127.3c-5.3-3.1-9.5-7.5-12.5-13s-4.5-11.7-4.5-18.7c0-6.6,1.5-12.6,4.4-18.3,2.9-5.6,7-10.1,12.2-13.4,5.2-3.3,11.1-5,17.8-5s12.9,1.5,18,4.6,8.9,7.2,11.6,12.5c2.6,5.3,4,11.3,4,17.9,0,1.3-.1,2.8-.4,4.7h-52.7c.5,6.4,2.8,11.3,6.8,14.8s8.6,5.2,13.9,5.2c4.2,0,7.9-1,11-2.9s5.6-4.6,7.5-7.9l12.5,5.9c-3.2,5.7-7.5,10.1-12.7,13.3s-11.5,4.9-18.7,4.9c-6.8.1-12.8-1.4-18.2-4.6Zm35.8-39.9c-.2-2.4-.9-4.8-2.3-7.2-1.3-2.4-3.4-4.4-6.1-6s-6.1-2.4-10-2.4c-4.8,0-8.8,1.4-12.1,4.2-3.3,2.8-5.5,6.6-6.8,11.4h37.3Z"/><path class="cls-1" d="m444.5,33.4h14.8v96.5h-14.8V33.4Z"/><path class="cls-1" d="m162.4,84.7c0-5.9-.5-11.5-1.5-16.9h-78.1v32h44.6c-1.9,10.4-7.7,19.2-16.5,25.1v20.8h26.8c15.7-14.5,24.7-35.8,24.7-61Z"/><path class="cls-1" d="m111,124.8c-7.4,5-16.9,7.9-28.1,7.9-21.6,0-39.9-14.5-46.4-34.1H8.8v21.5c13.6,27.1,41.7,45.6,74,45.6,22.4,0,41.2-7.3,54.9-20l-26.7-20.9Z"/><path class="cls-1" d="m33.9,82.8c0-5.5.9-10.8,2.6-15.8v-21.5H8.8C3.2,56.7,0,69.3,0,82.7s3.2,26,8.8,37.2l27.7-21.5c-1.7-4.8-2.6-10.1-2.6-15.6Z"/><path class="cls-1" d="m82.9,32.9c12.2,0,23.1,4.2,31.7,12.4l23.7-23.7C123.9,8.2,105.2,0,82.9,0,50.5,0,22.5,18.6,8.9,45.6l27.7,21.5c6.4-19.7,24.7-34.2,46.3-34.2Z"/></svg>