<svg id="Layer_1" data-name="Layer 1" xmlns="http://www.w3.org/2000/svg" viewBox="0 0 66.27 66.27"><defs><style>.cls-1{fill:#fff;}</style></defs><path class="cls-1" d="M100.46,18.76A33.14,33.14,0,1,0,133.6,51.89,33.13,33.13,0,0,0,100.46,18.76Zm0,63.29a30.16,30.16,0,1,1,30.16-30.16A30.15,30.15,0,0,1,100.46,82.05Z" transform="translate(-67.33 -18.76)"/><polygon class="cls-1" points="38.41 22.35 44.99 22.35 44.99 24.96 41.76 24.96 41.76 26.39 44.99 26.39 44.99 28.34 41.76 28.34 41.76 29.93 44.99 29.93 44.99 32.62 38.41 32.62 38.41 22.35"/><path class="cls-1" d="M97,41.11s2.11,4.28,2.29,4.6l2.3-4.6h3.58s-5.88,11-5.88,11l-5.87-11Z" transform="translate(-67.33 -18.76)"/><path class="cls-1" d="M89.53,41.11h3.36V51.38H89.53Z" transform="translate(-67.33 -18.76)"/><polygon class="cls-1" points="13.72 32.62 10.36 32.62 10.36 21.57 15.81 26.32 15.81 22.35 19.17 22.35 19.17 33.38 13.72 28.64 13.72 32.62"/><polygon class="cls-1" points="26.24 46.33 24.46 46.33 24.46 38.54 24.43 38.54 21.13 46.33 19.54 46.33 16.23 38.54 16.2 38.54 16.2 46.33 14.42 46.33 14.42 36.05 17.12 36.05 20.33 43.67 23.6 36.05 26.24 36.05 26.24 46.33"/><polygon class="cls-1" points="38.75 46.33 29.36 46.33 29.36 36.05 38.58 36.05 38.58 37.78 31.37 37.78 31.37 40.17 37.58 40.17 37.58 41.89 31.37 41.89 31.37 44.61 38.75 44.61 38.75 46.33"/><polygon class="cls-1" points="52.02 46.33 50.19 46.33 43.03 38.64 43.03 46.33 41.11 46.33 41.11 36.05 43.23 36.05 50.1 43.48 50.1 36.05 52.02 36.05 52.02 46.33"/><path class="cls-1" d="M119.32,40.26c-2.08,3.67-6.17,11.12-6.17,11.12h3.51l.57-1.12h4.19l.55,1.12h3.53Zm-1.24,7.62,1.29-2.64,1.26,2.64Z" transform="translate(-67.33 -18.76)"/></svg>