<svg id="Layer_1" data-name="Layer 1" xmlns="http://www.w3.org/2000/svg" viewBox="0 0 115.08 43.02"><defs><style>.cls-1{fill:#fff;}</style></defs><path id="CADBURY" class="cls-1" d="M157.51,51.3c-1.07-.18-1.57,1-3.35,3.49-1.63,2.3-4.94,6.14-6.36,5.36s-.45-3.83.53-6c.59-1.31,1-2.73.24-2.87s-2,1.52-2.87,3.62c-1.64,3.16-4.58,6.21-6.13,6.21-.87,0-1.17-.41-1.17-1.15,0-2.93,3-5.91,3-7.51,0-.52-.21-.94-.64-.94-.78,0-1.53,1.18-3.39,1.18a5.17,5.17,0,0,1-1.67-.31c.44-1.63.41-3.13-.9-3.13-1.08,0-1.87.89-1.87,2.47a2.61,2.61,0,0,0,1,2c-1.18,3.64-3.75,7.28-5.84,6.93-.87-.15-1.56-1.64-1.18-3.37,1.52-1.62,3.4-4.43,2.56-5.41-1.22-1.41-4.22,2.75-4.79,5.83-1.37,2-3.11,3.47-4.43,3.06-.66-.21-.88-.78-.86-1.52.09-2.4,1.35-3.83,2.26-5.12.67-.94,1.47-2.38.69-2.77-.62-.32-1.66.17-2.36,1.08l-.07.09a13.32,13.32,0,0,1-5.71,3.31c0-.3.06-.6.06-.89a5.86,5.86,0,0,0-3.58-5.68,54.39,54.39,0,0,1,4.78-7.07c2.54-.85,3.46-2.69,3.46-3.42,0-.49-.23-.83-.72-.83-1.09,0-3.18,1.76-4.8,3.41a22.78,22.78,0,0,1-3.58.25c-5.48,0-8.73-2.44-10.55-2.44a1.13,1.13,0,0,0-1.21,1.18c0,1.15,1.27,2.94,1.27,6.54a20.1,20.1,0,0,1-.58,4.47,3.34,3.34,0,0,0-3.14-1.62c-3,0-5.63,3-6.8,6.36-1.29,2.66-2.75,5.08-4.33,5.08-.87,0-1.27-.64-1.27-1.79,0-2.65,2-6.12,2-8.13,0-1.73-1-2.82-3.17-2.82-2.37,0-5.74,2.62-8.07,5.81-5,5.93-12,9.63-18.47,9.42-5-.12-8.59-3.52-8.59-8.53C46.85,43.5,58,31.94,70.24,31.94c4,0,6.64,2.07,6.7,6.33,0,7.84-8.51,13.42-14.16,13.42a3.85,3.85,0,0,1-4.17-4.1c0-4.21,4.09-7.66,8.82-9.39.52-.12.63-.69-.35-.69-4.9.22-11.18,5.65-11.18,10.83,0,3.74,2.9,5.37,6.13,5.37,7.38,0,17.62-7.6,17.62-15.78,0-3.87-2.38-7.55-8.78-7.55-15.05,0-27.94,13.81-27.94,25.06,0,9.57,8.36,10.83,11.93,10.83,6.69,0,13.14-3.73,16.79-7.57a7.56,7.56,0,0,0-.34,2.14c0,1.9,1,3.17,2.77,3.17,2.13,0,4.72-2.13,6.57-4.61-.29,1.73.34,4.32,2.59,4.32,1.94,0,3.69-2,5-4.07v0c0,2,1.3,3.92,3.43,3.92,6,0,10-9.92,10-17.87a18.55,18.55,0,0,0-.3-3.56,31.43,31.43,0,0,0,8,1c.94,0,1.81,0,2.59-.11a36.67,36.67,0,0,0-3.7,5.69l-.45,0c-2.68,0-4.81,1.87-4.81,4.21a4.06,4.06,0,0,0,2,3.43,13.52,13.52,0,0,0-.62,3.57c0,2.31,1.12,3.75,3.11,3.75,2.79,0,5.46-3.07,6.42-6.29A14.93,14.93,0,0,0,118,55.52a9.22,9.22,0,0,0-1.14,3.9c-.05,1.39.5,3.42,2.49,3.49,1.56.05,3.5-.77,5.34-3a2.91,2.91,0,0,0,2.35,2.6c3.53.67,6.5-3.43,8-8.09a3.81,3.81,0,0,0,1.37.28,6.28,6.28,0,0,0,1.46-.17,12.64,12.64,0,0,0-2.17,6.08c0,2.07,1.19,2.66,2.59,2.63,2.43,0,4.69-2.22,6.56-4.81,0,.1,0,.2,0,.29,0,1.67.35,3.79,2.07,4,1.44.19,3.11-.79,5.45-3.39.42-.47.62-.29.29.34-1.8,3.45-4.7,8.69-4.77,11.73a1.79,1.79,0,0,0,1.13,2c.44.13.85.07.95-.17a5.54,5.54,0,0,0,0-1.26c0-2.63,1.67-6.7,7-16.61C157.66,53.91,158.59,51.49,157.51,51.3ZM75.4,61.35A1.15,1.15,0,0,1,74.19,60c0-2.94,5.13-10.14,7.67-10.14.75,0,1,.4,1,1.15C82.84,54,77.94,61.35,75.4,61.35Zm16.76.31c-1.07,0-1.54-1.09-1.54-2.36,0-3.26,2.45-7.59,5.31-7.59a2.45,2.45,0,0,1,2.33,1.55C96.91,57.62,94.51,61.66,92.16,61.66ZM112,54.79a7.24,7.24,0,0,1-.2,1.62,12.31,12.31,0,0,1-1.79.14,8.33,8.33,0,0,1-2.49-.37,37.09,37.09,0,0,1,2.36-5.34A4.49,4.49,0,0,1,112,54.79ZM104.72,53a2.78,2.78,0,0,1,2.68-2.8h.07a41.81,41.81,0,0,0-2,4.74A2.86,2.86,0,0,1,104.72,53Zm3,8.88c-.89,0-1-.86-1-1.7a10.73,10.73,0,0,1,.45-2.81,11.66,11.66,0,0,0,3.45.51c.25,0,.51,0,.76,0C110.57,59.93,109.14,61.85,107.74,61.85Z" transform="translate(-42.93 -30.38)"/></svg>